<svg xmlns="http://www.w3.org/2000/svg" xmlns:xlink="http://www.w3.org/1999/xlink" width="50" zoomAndPan="magnify" viewBox="0 0 375 374.999991" height="50" preserveAspectRatio="xMidYMid meet" version="1.0"><defs><g/><clipPath id="83b539813c"><path d="M 112.5 99 L 262.5 99 L 262.5 154 L 112.5 154 Z M 112.5 99 " clip-rule="nonzero"/></clipPath></defs><rect x="-37.5" width="450" fill="#ffffff" y="-37.499999" height="449.999989" fill-opacity="1"/><rect x="-37.5" width="450" fill="#ffffff" y="-37.499999" height="449.999989" fill-opacity="1"/><g fill="#000000" fill-opacity="1"><g transform="translate(152.888571, 207.596838)"><g><path d="M 31.75 0 L 30.078125 -20.921875 L 29.859375 -20.921875 L 22.625 -0.21875 L 17.84375 -0.21875 L 10.609375 -20.921875 L 10.390625 -20.921875 L 8.734375 0 L 0.6875 0 L 3.84375 -35.296875 L 12.40625 -35.296875 L 20.234375 -14.9375 L 28.0625 -35.296875 L 36.625 -35.296875 L 39.78125 0 Z M 31.75 0 "/></g></g></g><g fill="#000000" fill-opacity="1"><g transform="translate(193.352176, 207.596838)"><g><path d="M 15.578125 -35.9375 C 17.484375 -35.9375 19.347656 -35.65625 21.171875 -35.09375 C 23.003906 -34.539062 24.359375 -33.992188 25.234375 -33.453125 L 26.53125 -32.59375 L 23.265625 -26.1875 C 23.015625 -26.351562 22.660156 -26.570312 22.203125 -26.84375 C 21.742188 -27.113281 20.882812 -27.476562 19.625 -27.9375 C 18.375 -28.394531 17.207031 -28.625 16.125 -28.625 C 14.789062 -28.625 13.757812 -28.335938 13.03125 -27.765625 C 12.300781 -27.191406 11.9375 -26.421875 11.9375 -25.453125 C 11.9375 -24.972656 12.109375 -24.523438 12.453125 -24.109375 C 12.796875 -23.691406 13.378906 -23.25 14.203125 -22.78125 C 15.023438 -22.3125 15.75 -21.929688 16.375 -21.640625 C 17.007812 -21.359375 17.984375 -20.929688 19.296875 -20.359375 C 21.578125 -19.390625 23.519531 -18.070312 25.125 -16.40625 C 26.738281 -14.738281 27.546875 -12.847656 27.546875 -10.734375 C 27.546875 -8.710938 27.179688 -6.945312 26.453125 -5.4375 C 25.734375 -3.925781 24.738281 -2.738281 23.46875 -1.875 C 22.195312 -1.019531 20.789062 -0.390625 19.25 0.015625 C 17.707031 0.429688 16.039062 0.640625 14.25 0.640625 C 12.707031 0.640625 11.191406 0.484375 9.703125 0.171875 C 8.222656 -0.140625 6.984375 -0.53125 5.984375 -1 C 4.984375 -1.476562 4.082031 -1.941406 3.28125 -2.390625 C 2.488281 -2.847656 1.910156 -3.234375 1.546875 -3.546875 L 0.984375 -4.015625 L 5 -10.78125 C 5.34375 -10.5 5.8125 -10.132812 6.40625 -9.6875 C 7.007812 -9.25 8.070312 -8.65625 9.59375 -7.90625 C 11.125 -7.164062 12.472656 -6.796875 13.640625 -6.796875 C 17.035156 -6.796875 18.734375 -7.953125 18.734375 -10.265625 C 18.734375 -10.753906 18.613281 -11.203125 18.375 -11.609375 C 18.132812 -12.023438 17.707031 -12.4375 17.09375 -12.84375 C 16.476562 -13.257812 15.9375 -13.585938 15.46875 -13.828125 C 15 -14.078125 14.226562 -14.453125 13.15625 -14.953125 C 12.082031 -15.453125 11.289062 -15.828125 10.78125 -16.078125 C 8.644531 -17.140625 6.988281 -18.460938 5.8125 -20.046875 C 4.644531 -21.628906 4.0625 -23.332031 4.0625 -25.15625 C 4.0625 -28.320312 5.226562 -30.910156 7.5625 -32.921875 C 9.90625 -34.929688 12.578125 -35.9375 15.578125 -35.9375 Z M 15.578125 -35.9375 "/></g></g></g><g fill="#000000" fill-opacity="1"><g transform="translate(77.677639, 242.096835)"><g><path d="M 24.765625 -9.921875 L 8.859375 -9.921875 C 8.859375 -8.378906 9.351562 -7.238281 10.34375 -6.5 C 11.34375 -5.757812 12.429688 -5.390625 13.609375 -5.390625 C 14.828125 -5.390625 15.789062 -5.550781 16.5 -5.875 C 17.21875 -6.207031 18.035156 -6.859375 18.953125 -7.828125 L 24.421875 -5.09375 C 22.140625 -1.269531 18.347656 0.640625 13.046875 0.640625 C 9.734375 0.640625 6.894531 -0.488281 4.53125 -2.75 C 2.164062 -5.019531 0.984375 -7.753906 0.984375 -10.953125 C 0.984375 -14.148438 2.164062 -16.890625 4.53125 -19.171875 C 6.894531 -21.453125 9.734375 -22.59375 13.046875 -22.59375 C 16.523438 -22.59375 19.351562 -21.585938 21.53125 -19.578125 C 23.71875 -17.566406 24.8125 -14.691406 24.8125 -10.953125 C 24.8125 -10.441406 24.796875 -10.097656 24.765625 -9.921875 Z M 9.0625 -14.125 L 17.40625 -14.125 C 17.238281 -15.257812 16.789062 -16.132812 16.0625 -16.75 C 15.332031 -17.363281 14.398438 -17.671875 13.265625 -17.671875 C 12.003906 -17.671875 11.003906 -17.34375 10.265625 -16.6875 C 9.523438 -16.03125 9.125 -15.175781 9.0625 -14.125 Z M 9.0625 -14.125 "/></g></g></g><g fill="#000000" fill-opacity="1"><g transform="translate(103.469976, 242.096835)"><g><path d="M 4.0625 -2.71875 C 2.007812 -4.957031 0.984375 -7.703125 0.984375 -10.953125 C 0.984375 -14.203125 2.007812 -16.953125 4.0625 -19.203125 C 6.113281 -21.460938 8.722656 -22.59375 11.890625 -22.59375 C 14.796875 -22.59375 17.191406 -21.675781 19.078125 -19.84375 L 19.078125 -36.796875 L 26.65625 -36.796875 L 26.65625 0 L 19.171875 0 L 19.171875 -2.484375 L 19.078125 -2.484375 C 17.191406 -0.398438 14.796875 0.640625 11.890625 0.640625 C 8.722656 0.640625 6.113281 -0.476562 4.0625 -2.71875 Z M 10.5 -14.671875 C 9.519531 -13.703125 9.03125 -12.460938 9.03125 -10.953125 C 9.03125 -9.441406 9.5 -8.207031 10.4375 -7.25 C 11.375 -6.289062 12.613281 -5.8125 14.15625 -5.8125 C 15.644531 -5.8125 16.863281 -6.296875 17.8125 -7.265625 C 18.769531 -8.242188 19.25 -9.472656 19.25 -10.953125 C 19.25 -12.460938 18.753906 -13.703125 17.765625 -14.671875 C 16.785156 -15.640625 15.582031 -16.125 14.15625 -16.125 C 12.707031 -16.125 11.488281 -15.640625 10.5 -14.671875 Z M 10.5 -14.671875 "/></g></g></g><g fill="#000000" fill-opacity="1"><g transform="translate(132.684189, 242.096835)"><g><path d="M 9.71875 -21.953125 L 9.71875 -11.515625 C 9.71875 -9.335938 10.039062 -7.789062 10.6875 -6.875 C 11.34375 -5.96875 12.457031 -5.515625 14.03125 -5.515625 C 15.601562 -5.515625 16.71875 -5.96875 17.375 -6.875 C 18.03125 -7.789062 18.359375 -9.335938 18.359375 -11.515625 L 18.359375 -21.953125 L 25.921875 -21.953125 L 25.921875 -9.671875 C 25.921875 -6.015625 24.972656 -3.378906 23.078125 -1.765625 C 21.179688 -0.160156 18.164062 0.640625 14.03125 0.640625 C 9.894531 0.640625 6.878906 -0.160156 4.984375 -1.765625 C 3.085938 -3.378906 2.140625 -6.015625 2.140625 -9.671875 L 2.140625 -21.953125 Z M 9.71875 -21.953125 "/></g></g></g><g fill="#000000" fill-opacity="1"><g transform="translate(160.743521, 242.096835)"><g><path d="M 14.25 -16.390625 C 12.820312 -16.390625 11.59375 -15.859375 10.5625 -14.796875 C 9.539062 -13.742188 9.03125 -12.476562 9.03125 -11 C 9.03125 -9.488281 9.539062 -8.203125 10.5625 -7.140625 C 11.59375 -6.085938 12.820312 -5.5625 14.25 -5.5625 C 14.925781 -5.5625 15.570312 -5.644531 16.1875 -5.8125 C 16.800781 -5.988281 17.253906 -6.160156 17.546875 -6.328125 L 17.921875 -6.59375 L 20.5 -1.328125 C 20.289062 -1.179688 20.007812 -1 19.65625 -0.78125 C 19.300781 -0.570312 18.488281 -0.285156 17.21875 0.078125 C 15.945312 0.453125 14.585938 0.640625 13.140625 0.640625 C 9.910156 0.640625 7.078125 -0.488281 4.640625 -2.75 C 2.203125 -5.019531 0.984375 -7.738281 0.984375 -10.90625 C 0.984375 -14.101562 2.203125 -16.847656 4.640625 -19.140625 C 7.078125 -21.441406 9.910156 -22.59375 13.140625 -22.59375 C 14.585938 -22.59375 15.925781 -22.421875 17.15625 -22.078125 C 18.382812 -21.734375 19.253906 -21.390625 19.765625 -21.046875 L 20.5 -20.53125 L 17.921875 -15.359375 C 16.984375 -16.046875 15.757812 -16.390625 14.25 -16.390625 Z M 14.25 -16.390625 "/></g></g></g><g fill="#000000" fill-opacity="1"><g transform="translate(181.745248, 242.096835)"><g><path d="M 4.0625 -2.71875 C 2.007812 -4.957031 0.984375 -7.703125 0.984375 -10.953125 C 0.984375 -14.203125 2.007812 -16.953125 4.0625 -19.203125 C 6.113281 -21.460938 8.722656 -22.59375 11.890625 -22.59375 C 14.796875 -22.59375 17.191406 -21.675781 19.078125 -19.84375 L 19.078125 -21.953125 L 26.65625 -21.953125 L 26.65625 0 L 19.171875 0 L 19.171875 -2.484375 L 19.078125 -2.484375 C 17.191406 -0.398438 14.796875 0.640625 11.890625 0.640625 C 8.722656 0.640625 6.113281 -0.476562 4.0625 -2.71875 Z M 10.5 -14.671875 C 9.519531 -13.703125 9.03125 -12.460938 9.03125 -10.953125 C 9.03125 -9.441406 9.5 -8.207031 10.4375 -7.25 C 11.375 -6.289062 12.613281 -5.8125 14.15625 -5.8125 C 15.644531 -5.8125 16.863281 -6.296875 17.8125 -7.265625 C 18.769531 -8.242188 19.25 -9.472656 19.25 -10.953125 C 19.25 -12.460938 18.753906 -13.703125 17.765625 -14.671875 C 16.785156 -15.640625 15.582031 -16.125 14.15625 -16.125 C 12.707031 -16.125 11.488281 -15.640625 10.5 -14.671875 Z M 10.5 -14.671875 "/></g></g></g><g fill="#000000" fill-opacity="1"><g transform="translate(210.95946, 242.096835)"><g><path d="M 3.84375 -21.953125 L 3.84375 -30.125 L 11.421875 -30.125 L 11.421875 -21.953125 L 16.046875 -21.953125 L 16.046875 -16.171875 L 11.421875 -16.171875 L 11.421875 -9.203125 C 11.421875 -7.171875 11.992188 -6.15625 13.140625 -6.15625 C 13.421875 -6.15625 13.71875 -6.210938 14.03125 -6.328125 C 14.34375 -6.441406 14.585938 -6.554688 14.765625 -6.671875 L 15.015625 -6.84375 L 16.90625 -0.734375 C 15.269531 0.179688 13.414062 0.640625 11.34375 0.640625 C 9.914062 0.640625 8.6875 0.390625 7.65625 -0.109375 C 6.632812 -0.609375 5.859375 -1.273438 5.328125 -2.109375 C 4.796875 -2.953125 4.414062 -3.835938 4.1875 -4.765625 C 3.957031 -5.691406 3.84375 -6.6875 3.84375 -7.75 L 3.84375 -16.171875 L 0.6875 -16.171875 L 0.6875 -21.953125 Z M 3.84375 -21.953125 "/></g></g></g><g fill="#000000" fill-opacity="1"><g transform="translate(227.854944, 242.096835)"><g><path d="M 3.296875 -34.1875 C 4.179688 -35.070312 5.234375 -35.515625 6.453125 -35.515625 C 7.679688 -35.515625 8.738281 -35.070312 9.625 -34.1875 C 10.507812 -33.300781 10.953125 -32.242188 10.953125 -31.015625 C 10.953125 -29.785156 10.507812 -28.726562 9.625 -27.84375 C 8.738281 -26.96875 7.679688 -26.53125 6.453125 -26.53125 C 5.234375 -26.53125 4.179688 -26.96875 3.296875 -27.84375 C 2.410156 -28.726562 1.96875 -29.785156 1.96875 -31.015625 C 1.96875 -32.242188 2.410156 -33.300781 3.296875 -34.1875 Z M 2.5625 -21.953125 L 2.5625 0 L 10.140625 0 L 10.140625 -21.953125 Z M 2.5625 -21.953125 "/></g></g></g><g fill="#000000" fill-opacity="1"><g transform="translate(240.772496, 242.096835)"><g><path d="M 4.640625 -2.609375 C 2.203125 -4.773438 0.984375 -7.554688 0.984375 -10.953125 C 0.984375 -14.347656 2.25 -17.132812 4.78125 -19.3125 C 7.320312 -21.5 10.460938 -22.59375 14.203125 -22.59375 C 17.878906 -22.59375 20.976562 -21.492188 23.5 -19.296875 C 26.03125 -17.097656 27.296875 -14.316406 27.296875 -10.953125 C 27.296875 -7.585938 26.0625 -4.8125 23.59375 -2.625 C 21.125 -0.445312 17.992188 0.640625 14.203125 0.640625 C 10.265625 0.640625 7.078125 -0.441406 4.640625 -2.609375 Z M 10.5 -14.671875 C 9.519531 -13.703125 9.03125 -12.460938 9.03125 -10.953125 C 9.03125 -9.441406 9.5 -8.207031 10.4375 -7.25 C 11.375 -6.289062 12.613281 -5.8125 14.15625 -5.8125 C 15.644531 -5.8125 16.863281 -6.296875 17.8125 -7.265625 C 18.769531 -8.242188 19.25 -9.472656 19.25 -10.953125 C 19.25 -12.460938 18.753906 -13.703125 17.765625 -14.671875 C 16.785156 -15.640625 15.582031 -16.125 14.15625 -16.125 C 12.707031 -16.125 11.488281 -15.640625 10.5 -14.671875 Z M 10.5 -14.671875 "/></g></g></g><g fill="#000000" fill-opacity="1"><g transform="translate(269.045684, 242.096835)"><g><path d="M 2.5625 0 L 2.5625 -21.953125 L 10.140625 -21.953125 L 10.140625 -19.640625 L 10.21875 -19.640625 C 12.1875 -21.609375 14.285156 -22.59375 16.515625 -22.59375 C 17.597656 -22.59375 18.671875 -22.445312 19.734375 -22.15625 C 20.804688 -21.875 21.832031 -21.429688 22.8125 -20.828125 C 23.800781 -20.234375 24.601562 -19.382812 25.21875 -18.28125 C 25.832031 -17.1875 26.140625 -15.910156 26.140625 -14.453125 L 26.140625 0 L 18.5625 0 L 18.5625 -12.40625 C 18.5625 -13.550781 18.195312 -14.550781 17.46875 -15.40625 C 16.75 -16.257812 15.800781 -16.6875 14.625 -16.6875 C 13.488281 -16.6875 12.457031 -16.242188 11.53125 -15.359375 C 10.601562 -14.472656 10.140625 -13.488281 10.140625 -12.40625 L 10.140625 0 Z M 2.5625 0 "/></g></g></g><path fill="#0f0f0f" d="M 171.1875 158.53125 C 181.796875 157.445312 194.417969 158.269531 204.945312 160.730469 C 211.070312 162.167969 220.914062 165.238281 223.925781 170.605469 C 223.910156 170.296875 223.847656 170 223.730469 169.714844 C 223.914062 165.652344 224.117188 161.261719 224.320312 156.757812 C 224.316406 156.757812 224.308594 156.761719 224.304688 156.761719 C 224.464844 153.1875 224.628906 149.546875 224.792969 145.941406 C 224.21875 142.171875 217.28125 138.277344 206.621094 135.757812 C 196.164062 133.285156 183.617188 132.40625 173.0625 133.40625 C 161.414062 134.507812 153.398438 137.726562 150.445312 142.480469 C 150.363281 142.925781 150.183594 144.003906 150.167969 145.074219 C 150.132812 147.6875 150.082031 150.867188 150.023438 154.09375 C 150.007812 154.085938 149.992188 154.082031 149.972656 154.074219 C 149.875 159.292969 149.769531 163.351562 149.664062 165.960938 C 153.078125 162.828125 159.425781 159.738281 171.1875 158.53125 " fill-opacity="1" fill-rule="nonzero"/><g clip-path="url(#83b539813c)"><path fill="#0f0f0f" d="M 261.785156 133.492188 L 186.878906 99.101562 C 186.585938 98.96875 186.257812 98.96875 185.96875 99.101562 L 113.207031 132.425781 C 112.785156 132.621094 112.511719 133.0625 112.503906 133.554688 C 112.5 134.046875 112.765625 134.496094 113.183594 134.699219 L 147.59375 151.472656 C 147.632812 149.316406 147.667969 147 147.703125 144.539062 C 147.722656 142.855469 148.070312 141.238281 148.085938 141.171875 L 148.132812 140.953125 L 148.242188 140.761719 C 150.5625 136.820312 156.710938 131.804688 172.84375 130.273438 C 183.636719 129.253906 196.464844 130.148438 207.152344 132.679688 C 214.300781 134.367188 226.414062 138.242188 227.253906 145.210938 L 227.265625 145.328125 L 227.261719 145.445312 C 227.140625 148.175781 227.015625 150.921875 226.890625 153.648438 L 261.832031 135.75 C 262.242188 135.542969 262.496094 135.09375 262.488281 134.605469 C 262.480469 134.121094 262.203125 133.683594 261.785156 133.492188 " fill-opacity="1" fill-rule="nonzero"/></g><path fill="#ff9a12" d="M 132.195312 163.472656 L 129.878906 163.433594 L 130.351562 137.421875 L 132.667969 137.464844 L 132.195312 163.472656 " fill-opacity="1" fill-rule="nonzero"/><path fill="#ffb608" d="M 129.335938 166.648438 C 125.179688 172.261719 123.769531 179.933594 124.46875 189.199219 C 130.390625 194.199219 134.855469 194.027344 138.203125 189.886719 C 138.265625 172.035156 135.644531 163.164062 129.335938 166.648438 " fill-opacity="1" fill-rule="evenodd"/><path fill="#e4a91d" d="M 128.335938 191.847656 L 127.847656 173.628906 L 126.113281 190.484375 C 126.882812 191.023438 127.617188 191.480469 128.335938 191.847656 " fill-opacity="1" fill-rule="evenodd"/><path fill="#e4a91d" d="M 131.441406 181.828125 L 131.488281 189.5625 L 130.347656 179.453125 L 131.015625 192.335938 C 131.746094 192.554688 132.441406 192.679688 133.101562 192.730469 L 133.167969 192.71875 L 131.441406 181.828125 " fill-opacity="1" fill-rule="evenodd"/><path fill="#e4a91d" d="M 134.386719 175.167969 L 134.558594 192.628906 C 135.003906 192.472656 135.4375 192.269531 135.855469 192.011719 L 136.277344 183.570312 L 135.132812 183 L 134.386719 175.167969 " fill-opacity="1" fill-rule="evenodd"/><path fill="#e4a91d" d="M 131.871094 159.691406 C 134.269531 159.804688 136.117188 161.746094 136.003906 164.019531 C 135.894531 166.296875 133.859375 168.042969 131.460938 167.929688 C 129.0625 167.804688 127.203125 165.863281 127.320312 163.585938 C 127.433594 161.3125 129.464844 159.566406 131.871094 159.691406 " fill-opacity="1" fill-rule="evenodd"/></svg>